<svg xmlns="http://www.w3.org/2000/svg" viewBox="0 0 48 48">
  <path fill="currentColor" d="M41.8 22.4c-.1-.6-.2-1.1-.4-1.6.2-.8.3-1.7.3-2.5 0-3.1-1.2-6-3.4-8.2-2.2-2.2-5.1-3.4-8.2-3.4-.6 0-1.2 0-1.7.1C27.5 5.7 26.3 5 25 5c-1.7 0-3 1.3-3 3 0 .8.3 1.5.8 2-.3.1-.6.2-.8.4-2.2.9-4 2.5-5.2 4.5-1.2 2-1.8 4.3-1.8 6.6 0 3.1 1.2 6 3.4 8.2 1.8 1.8 4.1 2.9 6.6 3.2v5.6l-4.5-4.5c-.4-.4-1-.4-1.4 0s-.4 1 0 1.4l6.2 6.2c.2.2.5.3.7.3s.5-.1.7-.3l6.2-6.2c.4-.4.4-1 0-1.4s-1-.4-1.4 0L27 38.4v-5.6c2.5-.3 4.8-1.4 6.6-3.2 1.8-1.8 2.9-4.1 3.2-6.6h4.7c.6 0 1-.4 1-1s-.4-1-1-1h-4.7zm-3.5-3.9c0 .7-.1 1.4-.2 2-.5-.4-1-.7-1.6-1-.5-2.5-1.7-4.8-3.5-6.6-1.1-1.1-2.3-1.9-3.7-2.5.5-.1 1-.2 1.5-.2 2.5 0 4.9 1 6.7 2.8 1.8 1.7 2.8 4.1 2.8 6.7v.8zm-9.8-8.7c1.8 0 3.5.5 5 1.5-.4.3-.7.7-1 1.1-1.2-.7-2.6-1.1-4-1.1-2.1 0-4.1.8-5.6 2.3-1.5 1.5-2.3 3.5-2.3 5.6 0 2.1.8 4.1 2.3 5.6 1.5 1.5 3.5 2.3 5.6 2.3 2.1 0 4.1-.8 5.6-2.3.7-.7 1.3-1.5 1.7-2.4.4.2.8.5 1.2.8-.5 1.1-1.2 2.1-2.1 3-1.8 1.8-4.2 2.8-6.7 2.8s-4.9-1-6.7-2.8c-1.8-1.8-2.8-4.2-2.8-6.7s1-4.9 2.8-6.7c1.6-1.9 4-3 6.4-3z"/>
</svg> 